<?xml version="1.0" encoding="UTF-8"?>
<svg width="60px" height="60px" viewBox="0 0 60 60" version="1.1" xmlns="http://www.w3.org/2000/svg" xmlns:xlink="http://www.w3.org/1999/xlink">
    <!-- Generator: Sketch 51.3 (57544) - http://www.bohemiancoding.com/sketch -->
    <title>045 - Christmas Horse Toy</title>
    <desc>Created with Sketch.</desc>
    <defs></defs>
    <g id="Page-1" stroke="none" stroke-width="1" fill="none" fill-rule="evenodd">
        <g id="045---Christmas-Horse-Toy" transform="translate(1.000000, 0.000000)">
            <path d="M2.22044605e-16,34 C0.0101404234,34.4232584 0.0569827196,34.844839 0.14,35.26 C0.486840293,35.2017591 0.81349894,35.0573416 1.09,34.84 C0.686868862,34.6158341 0.319482115,34.3327104 2.22044605e-16,34 Z M2.74,38.81 C3.14723137,38.9399022 3.57257087,39.0040407 4,39 C4.11,39 4.22,39 4.32,38.99 C4.36,38.75 4.41,38.51 4.46,38.27 C3.90432106,38.5020404 3.32859166,38.6827927 2.74,38.81 Z M57.88,50.61 C57.85,50.51 57.81,50.41 57.77,50.31 C57.7393812,50.2046193 57.7026524,50.1011108 57.66,50 C57.66,50.01 57.65,50.01 57.65,50.02 C57.4810239,49.6508873 57.2511486,49.3128354 56.97,49.02 C55.9331028,47.9830711 54.3575686,47.7071527 53.03,48.33 C53.02,48.33 53.01,48.34 53,48.34 C52.58,48.53 52.05,48.76 51.43,49 C51.26,48.69 51.1,48.37 50.95,48.05 C47.03,40.06 45.61,28.24 45.17,23.3 C43.9189009,22.8451234 42.8205846,22.0482378 42,21 C42,21 42.94,38.79 48.43,49 L43.73,49.35 C43.94,49.71 44.15,50.06 44.35,50.38 C44.49,50.63 44.64,50.86 44.77,51.08 C39.6091615,52.3490646 34.314578,52.993681 29,53 C28.51,53 28.03,52.99 27.56,52.98 L27.42,52.98 C22.1472202,52.8583507 16.9087872,52.0960915 11.82,50.71 C11.8027178,50.7115564 11.7853542,50.7080837 11.77,50.7 C11.49,50.62 11.21,50.54 10.94,50.46 L10.92,50.46 C10.64,50.38 10.37,50.3 10.11,50.22 L10.1,50.22 C9.83,50.14 9.56,50.05 9.3,49.96 C8.03,49.56 6.95,49.16 6.09,48.81 C5.67,48.64 5.28,48.47 4.97,48.33 C4.40554202,48.065715 3.78023517,47.9586182 3.16,48.02 C2.75631065,48.0508362 2.36240289,48.1595004 2,48.34 C1.63736128,48.504668 1.30845268,48.7352431 1.03,49.02 C0.748851392,49.3128354 0.518976147,49.6508873 0.35,50.02 C0.35,50.01 0.34,50.01 0.34,50 C0.3,50.09 0.28,50.18 0.24,50.27 C0.2,50.39 0.15,50.51 0.12,50.63 C0.0828240386,50.7914431 0.0561018805,50.9551163 0.04,51.12 C0.03,51.22 0.01,51.32 0.01,51.42 C0.01,51.45 0,51.47 0,51.49 C0.00351842813,51.7050373 0.0269519033,51.9192862 0.07,52.13 C0.0751885623,52.1775694 0.0852411335,52.2244814 0.1,52.27 C0.147794229,52.5150655 0.225020411,52.7534594 0.33,52.98 C0.33,52.99 0.34,53 0.35,53.01 C0.451455474,53.2279939 0.579059909,53.4328326 0.73,53.62 C0.754254298,53.6583619 0.780977338,53.695106 0.81,53.73 C0.970823941,53.925691 1.1556053,54.1003934 1.36,54.25 C1.39461781,54.2824204 1.4313666,54.3124876 1.47,54.34 C1.69620139,54.4967836 1.93737924,54.6307713 2.19,54.74 C2.6,54.91 3.09,55.09 3.62,55.27 C11.3423497,57.7263461 19.3964058,58.9809981 27.5,58.99 C27.99,59 28.49,59 29,59 C37.6053878,59.1273029 46.1751163,57.8678432 54.38,55.27 C54.91,55.09 55.4,54.91 55.81,54.74 C56.0745055,54.6340681 56.3234369,54.4927828 56.55,54.32 C56.6090763,54.2763388 56.665821,54.2296079 56.72,54.18 C56.8751901,54.0563346 57.0190889,53.9191288 57.15,53.77 C57.2,53.71 57.25,53.64 57.3,53.57 C57.4117692,53.42317 57.5088989,53.2657529 57.59,53.1 C57.6305622,53.0321106 57.6672864,52.9620006 57.7,52.89 C57.7779232,52.7130253 57.8382146,52.5288016 57.88,52.34 C57.9013521,52.2745929 57.9180603,52.2077602 57.93,52.14 C58.0284271,51.6327153 58.0113376,51.1097761 57.88,50.61 Z M48.45,8.1 L50.18,4.65 C50.4276897,4.1541975 50.458536,3.57784377 50.2651801,3.05843661 C50.0718241,2.53902945 49.6716047,2.12314546 49.16,1.91 C47.5170185,1.26872005 45.7632306,0.959427993 44,1 C43.47,1 42.86,1.01 42.21,1.05 C43.5648236,1.11882952 44.8991929,1.40935045 46.16,1.91 C46.6716047,2.12314546 47.0718241,2.53902945 47.2651801,3.05843661 C47.458536,3.57784377 47.4276897,4.1541975 47.18,4.65 L45.45,8.1 C50.59,10.1 55,14.55 55,19 C55,21.64 54.23,23.5 50.64,23.92 C51.0913963,23.9730415 51.5454982,23.9997534 52,24 C57,24 58,22 58,19 C58,14.55 53.59,10.1 48.45,8.1 Z M6.09,48.81 C5.67,48.64 5.28,48.47 4.97,48.33 C4.40554202,48.065715 3.78023517,47.9586182 3.16,48.02 L3.09,48.81 C4.13,49.23 5.48,49.72 7.1,50.22 L7.11,50.22 C7.65,50.38 8.22,50.55 8.82,50.71 L9.3,49.96 C8.03,49.56 6.95,49.16 6.09,48.81 Z" id="Shape" fill="#FFA800" fill-rule="nonzero"></path>
            <path d="M54.88,50.61 C54.85,50.51 54.81,50.41 54.77,50.31 C54.7393812,50.2046193 54.7026524,50.1011108 54.66,50 C54.66,50.01 54.65,50.01 54.65,50.02 C54.4810239,49.6508873 54.2511486,49.3128354 53.97,49.02 C53.176034,48.2328859 52.0538125,47.8724373 50.95,48.05 C50.6318502,48.1002945 50.3222262,48.1945279 50.03,48.33 C49.6,48.52 49.06,48.75 48.43,49 L43.73,49.35 C43.94,49.71 44.15,50.06 44.35,50.38 C44.49,50.63 44.64,50.86 44.77,51.08 C39.6091615,52.3490646 34.314578,52.993681 29,53 C28.51,53 28.03,52.99 27.56,52.98 L27.42,52.98 C26.95,52.99 26.48,53 26,53 C19.6012523,53.0022666 13.2367978,52.0656237 7.11,50.22 C7.65,50.38 8.22,50.55 8.82,50.71 L9.3,49.96 C8.03,49.56 6.95,49.16 6.09,48.81 C5.67,48.64 5.28,48.47 4.97,48.33 C4.40554202,48.065715 3.78023517,47.9586182 3.16,48.02 L3.09,48.81 C2.68,48.65 2.3,48.48 2,48.34 C1.63736128,48.504668 1.30845268,48.7352431 1.03,49.02 C0.748851392,49.3128354 0.518976147,49.6508873 0.35,50.02 C0.35,50.01 0.34,50.01 0.34,50 C0.3,50.09 0.28,50.18 0.24,50.27 C0.2,50.39 0.15,50.51 0.12,50.63 C0.0828240386,50.7914431 0.0561018805,50.9551163 0.04,51.12 C0.03,51.22 0.01,51.32 0.01,51.42 C0.01,51.45 -3.55271368e-15,51.47 -3.55271368e-15,51.49 C0.00351842813,51.7050373 0.0269519033,51.9192862 0.07,52.13 C0.0751885623,52.1775694 0.0852411335,52.2244814 0.1,52.27 C0.147794229,52.5150655 0.225020411,52.7534594 0.33,52.98 C0.33,52.99 0.34,53 0.35,53.01 C0.451455474,53.2279939 0.579059909,53.4328326 0.73,53.62 C0.754254298,53.6583619 0.780977338,53.695106 0.81,53.73 C0.970823941,53.925691 1.1556053,54.1003934 1.36,54.25 C1.39461781,54.2824204 1.4313666,54.3124876 1.47,54.34 C1.69620139,54.4967836 1.93737924,54.6307713 2.19,54.74 C2.6,54.91 3.09,55.09 3.62,55.27 C11.3423497,57.7263461 19.3964058,58.9809981 27.5,58.99 C35.6035942,58.9809981 43.6576503,57.7263461 51.38,55.27 C51.91,55.09 52.4,54.91 52.81,54.74 C53.0745055,54.6340681 53.3234369,54.4927828 53.55,54.32 C53.6090763,54.2763388 53.665821,54.2296079 53.72,54.18 C53.8751901,54.0563346 54.0190889,53.9191288 54.15,53.77 C54.2,53.71 54.25,53.64 54.3,53.57 C54.4117692,53.42317 54.5088989,53.2657529 54.59,53.1 C54.6305622,53.0321106 54.6672864,52.9620006 54.7,52.89 C54.7779232,52.7130253 54.8382146,52.5288016 54.88,52.34 C54.9013521,52.2745929 54.9180603,52.2077602 54.93,52.14 C55.0284271,51.6327153 55.0113376,51.1097761 54.88,50.61 Z M45,21 C45,21 45.05,21.86 45.17,23.3 C46.3890156,23.7801169 47.6899652,24.0178884 49,24 C49.5476666,24.0010343 50.0950343,23.9743334 50.64,23.92 C48.4358401,23.7729674 46.392374,22.7150027 45,21 Z" id="Shape" fill="#FEDD0A" fill-rule="nonzero"></path>
            <path d="M55,19 C55,21.64 54.23,23.5 50.64,23.92 C48.4358401,23.7729674 46.392374,22.7150027 45,21 C45,21 45.05,21.86 45.17,23.3 C43.9189009,22.8451234 42.8205846,22.0482378 42,21 C42,21 42.94,38.79 48.43,49 L43.73,49.35 C42.030108,46.5805786 40.5938134,43.6577693 39.44,40.62 C39.3339003,40.3010486 39.0727713,40.0580213 38.7470321,39.975069 C38.4212929,39.8921168 38.0757305,39.9806451 37.83,40.21 C37.4507093,40.56348 37.0535198,40.8972527 36.64,41.21 C34.4680479,42.9523876 31.7836592,43.9326813 29,44 C28.43,44 27.87,43.97 27.32,43.92 L27.3,43.92 C26.868613,43.9721648 26.4345281,43.9988778 26,44 C23.0009051,43.9465226 20.041532,43.3043624 17.29,42.11 L11.82,50.71 C11.8027178,50.7115564 11.7853542,50.7080837 11.77,50.7 C11.49,50.62 11.21,50.54 10.94,50.46 L10.92,50.46 C10.64,50.38 10.37,50.3 10.11,50.22 L10.1,50.22 C9.83,50.14 9.56,50.05 9.3,49.96 C8.03,49.56 6.95,49.16 6.09,48.81 C6.3418942,45.2730729 6.7993336,41.7537945 7.46,38.27 C6.46484964,38.6959598 5.40131804,38.939827 4.32,38.99 C4.36,38.75 4.41,38.51 4.46,38.27 C3.90432106,38.5020404 3.32859166,38.6827927 2.74,38.81 C1.29962806,38.1782922 0.307641229,36.8238486 0.14,35.26 C0.486840293,35.2017591 0.81349894,35.0573416 1.09,34.84 C3.18,36.05 5,34.71 5,33 C5,29 2,29 2,24 C2,19.8 4.12,17.71 6.58,17.16 C7.04556178,17.0519826 7.52207467,16.998291 8,17 C12.88,17 15.33,21.38 16.36,24.02 C16.57,24.01 16.78,24 17,24 L17.46,24 C17.52,23.86 17.56,23.73 17.63,23.59 C17.7884283,23.229369 18.1461119,22.9974643 18.54,23 L26,23 C26.5213181,22.9926579 27.0392859,22.9152991 27.54,22.77 C27.87,21.48 28,19.11 28,14 C28,3.28 36.77,1.34 42.21,1.05 C43.5648236,1.11882952 44.8991929,1.40935045 46.16,1.91 C46.6716047,2.12314546 47.0718241,2.53902945 47.2651801,3.05843661 C47.458536,3.57784377 47.4276897,4.1541975 47.18,4.65 L45.45,8.1 C50.59,10.1 55,14.55 55,19 Z" id="Shape" fill="#FEDD0A" fill-rule="nonzero"></path>
            <path d="M55.81,54.74 C51.77,56.37 42.19,59 29,59 C28.49,59 27.99,59 27.5,58.99 C15.08,58.8 6.08,56.31 2.19,54.74 C1.10175236,54.2992725 0.306985753,53.3422534 0.0736306641,52.1915714 C-0.159724425,51.0408894 0.199423856,49.8498596 1.03,49.02 C1.30845268,48.7352431 1.63736128,48.504668 2,48.34 C2.93847587,47.8917496 4.02852693,47.8880794 4.97,48.33 C12.1170655,51.2950472 19.7630352,52.8731102 27.5,52.98 C27.99,52.99 28.49,53 29,53 C37.23108,53.0666808 45.3919602,51.4821098 53,48.34 C53.01,48.34 53.02,48.33 53.03,48.33 C54.1827363,47.788594 55.5387196,47.9170718 56.5692607,48.6653408 C57.5998018,49.4136098 58.1417485,50.6632062 57.9837991,51.9269203 C57.8258498,53.1906345 56.9930105,54.2683988 55.81,54.74 Z" id="Shape" fill="#FFA800" fill-rule="nonzero"></path>
            <path d="M52.81,54.74 C48.92,56.31 39.92,58.8 27.5,58.99 C15.08,58.8 6.08,56.31 2.19,54.74 C1.10175236,54.2992725 0.306985753,53.3422534 0.0736306641,52.1915714 C-0.159724425,51.0408894 0.199423856,49.8498596 1.03,49.02 C1.30845268,48.7352431 1.63736128,48.504668 2,48.34 C9.60803978,51.4821098 17.76892,53.0666808 26,53 C26.51,53 27.01,52.99 27.5,52.98 C27.99,52.99 28.49,53 29,53 C37.23108,53.0666808 45.3919602,51.4821098 53,48.34 C53.3612035,48.507171 53.6896837,48.7374458 53.97,49.02 C54.8040886,49.8483284 55.1655983,51.040644 54.9319634,52.1927059 C54.6983285,53.3447677 53.9008861,54.3020511 52.81,54.74 Z" id="Shape" fill="#FEDD0A" fill-rule="nonzero"></path>
            <path d="M26,33 C29.825,33 33.631,31.157 30.46,24 C30.1744461,23.6158979 29.8669334,23.2486189 29.539,22.9 C28.4999262,23.6206576 27.2645158,24.0046506 26,24 L21.54,24 C18.369,31.157 22.175,33 26,33 Z" id="Shape" fill="#DB4E6C" fill-rule="nonzero"></path>
            <path d="M44,1 C39,1 28,2 28,14 C28,21.134 27.745,22.924 27.055,23.908 C29.147,23.565 32,22.07 32,17 C32,9 37,7 43,7 C44.8695548,7.02790364 46.7178818,7.40082362 48.452,8.1 L50.175,4.652 C50.4234188,4.15698887 50.4554461,3.58112744 50.2634509,3.06162214 C50.0714556,2.54211683 49.6726303,2.12548697 49.162,1.911 C47.5178717,1.27123071 45.7638008,0.9616688 44,1 Z" id="Shape" fill="#FEDD0A" fill-rule="nonzero"></path>
            <path d="M8,17 C5,17 2,19 2,24 C2,29 5,29 5,33 C5,35 2.5,36.5 0,34 C0,34 0,39 4,39 C5.19102551,38.9877182 6.36801515,38.7413795 7.464,38.275 C8.837,31.533 11.364,26.126 16.544,24.504 C15.63,21.946 13.192,17 8,17 Z" id="Shape" fill="#FEDD0A" fill-rule="nonzero"></path>
            <path d="M29,44 C29.4234892,43.9986102 29.8465383,43.9725662 30.267,43.922 C29.8465297,43.9724719 29.4234861,43.9985156 29,44 Z" id="Shape" fill="#FFFFFF" fill-rule="nonzero"></path>
            <path d="M10.108,50.22 L10.1,50.22 C10.334,50.291 10.57,50.362 10.815,50.434 C10.571,50.362 10.341,50.291 10.108,50.22 Z" id="Shape" fill="#FFFFFF" fill-rule="nonzero"></path>
            <polygon id="Shape" fill="#FFFFFF" fill-rule="nonzero" points="10.085 50.215 9.974 50.18 9.774 50.12"></polygon>
            <path d="M10.459,38.276 C10.0545947,38.4400739 9.64007609,38.5780241 9.218,38.689 C9.118,38.715 9.03,38.744 8.933,38.767 C8.792,38.8 8.647,38.823 8.503,38.85 C8.359,38.877 8.218,38.904 8.071,38.923 C7.924,38.942 7.756,38.953 7.597,38.965 C7.507,38.972 7.421,38.986 7.33,38.989 C6.789,41.844 6.43,44.909 6.162,48.02 C6.23,48.013 6.299,48.02 6.367,48.013 C6.435,48.006 6.478,48.007 6.534,48.013 C6.74759758,48.0150608 6.96053071,48.0371576 7.17,48.079 C7.218,48.088 7.27,48.101 7.313,48.113 C7.53896954,48.1645009 7.75910564,48.2388847 7.97,48.335 C8.28,48.475 8.67,48.645 9.09,48.815 C9.34192977,45.2784604 9.79903266,41.7595362 10.459,38.276 Z" id="Shape" fill="#FFFFFF" fill-rule="nonzero"></path>
            <path d="M11.82,50.71 C11.22,50.55 10.65,50.38 10.11,50.22 C10.648,50.385 11.22,50.549 11.816,50.712 L11.944,50.747 C12.16,50.806 12.399,50.862 12.622,50.92 C12.355,50.85 12.077,50.781 11.82,50.71 Z" id="Shape" fill="#FFFFFF" fill-rule="nonzero"></path>
            <path d="M18.048,52.076 C17.906,52.052 17.765,52.029 17.625,52.004 C17.809,52.036 17.991,52.069 18.178,52.104 C18.133,52.093 18.092,52.084 18.048,52.076 Z" id="Shape" fill="#FFFFFF" fill-rule="nonzero"></path>
            <path d="M17.625,52 L17.525,51.982 C17.266,51.936 17.008,51.889 16.755,51.842 C16.679,51.827 16.6,51.814 16.525,51.8 C16.884,51.873 17.253,51.939 17.625,52 Z" id="Shape" fill="#FFFFFF" fill-rule="nonzero"></path>
            <path d="M14.174,51.305 C14.42,51.362 14.663,51.419 14.915,51.474 C14.775,51.443 14.643,51.41 14.505,51.379 L14.174,51.305 Z" id="Shape" fill="#FFFFFF" fill-rule="nonzero"></path>
            <polygon id="Shape" fill="#FFFFFF" fill-rule="nonzero" points="16.129 51.726 16.524 51.804 16.246 51.748"></polygon>
            <polygon id="Shape" fill="#FFFFFF" fill-rule="nonzero" points="15.808 51.66 15.853 51.668 15.772 51.652"></polygon>
            <path d="M11.162,50.532 C11.485,50.624 11.814,50.715 12.155,50.806 L11.944,50.747 L11.816,50.712 C11.6,50.652 11.375,50.592 11.162,50.532 Z" id="Shape" fill="#FFFFFF" fill-rule="nonzero"></path>
            <path d="M13.744,51.2 L14.044,51.27 L14.229,51.311 C14.041,51.267 13.848,51.224 13.665,51.18 L13.744,51.2 Z" id="Shape" fill="#FFFFFF" fill-rule="nonzero"></path>
            <polygon id="Shape" fill="#FFFFFF" fill-rule="nonzero" points="15.758 51.649 15.772 51.649 15.75 51.649"></polygon>
            <path d="M43.248,1.009 C43.51,1 43.765,1 44,1 C43.763,1 43.509,1 43.248,1.009 Z" id="Shape" fill="#FFFFFF" fill-rule="nonzero"></path>
            <path d="M42.21,1.05 C42.52,1.031 42.82,1.019 43.11,1.012 C41.6972294,1.04174086 40.2889427,1.18183395 38.898,1.431 L38.872,1.431 C38.5093333,1.49766667 38.1426667,1.576 37.772,1.666 L37.629,1.701 C37.279,1.789 36.9286667,1.88733333 36.578,1.996 L36.405,2.053 C36.056,2.166 35.705,2.289 35.363,2.428 L35.232,2.484 C34.903,2.62 34.576,2.769 34.255,2.931 C34.218,2.95 34.18,2.966 34.142,2.986 C33.817,3.154 33.5,3.34 33.188,3.536 C33.124,3.577 33.059,3.616 32.995,3.658 C32.695,3.858 32.407,4.067 32.126,4.293 C32.06,4.346 31.995,4.399 31.926,4.453 C31.6443323,4.68901352 31.3749772,4.93934352 31.119,5.203 C31.067,5.257 31.019,5.314 30.967,5.369 C30.6983035,5.65584266 30.4468618,5.95837417 30.214,6.275 C30.19,6.307 30.169,6.343 30.146,6.375 C29.9153827,6.70020736 29.7036984,7.03843474 29.512,7.388 C29.484,7.438 29.454,7.488 29.427,7.536 C29.2280606,7.91791883 29.0511055,8.31089259 28.897,8.713 C28.867,8.79 28.837,8.866 28.808,8.945 C28.6531566,9.37449503 28.52196,9.81215088 28.415,10.256 C28.395,10.342 28.376,10.43 28.356,10.518 C28.2459568,11.0132271 28.1621732,11.5139259 28.105,12.018 C28.097,12.09 28.092,12.165 28.085,12.237 C28.0272335,12.8228778 27.9988646,13.4112824 28,14 C28,14.4 28,14.783 28,15.153 L28,15.422 C28,15.7286667 27.9976667,16.0243333 27.993,16.309 L27.993,16.478 C27.989,16.8113333 27.9843333,17.1323333 27.979,17.441 L27.979,17.569 C27.979,17.828 27.968,18.075 27.961,18.312 L27.956,18.494 C27.94,19.031 27.919,19.514 27.895,19.948 C27.895,19.997 27.889,20.048 27.887,20.092 C27.876,20.266 27.865,20.431 27.853,20.592 C27.853,20.631 27.848,20.672 27.844,20.711 C27.83,20.894 27.815,21.066 27.798,21.229 C27.798,21.271 27.789,21.31 27.785,21.35 C27.772,21.467 27.759,21.578 27.746,21.684 C27.738,21.74 27.731,21.796 27.724,21.849 C27.711,21.938 27.698,22.021 27.685,22.102 C27.672,22.183 27.654,22.281 27.638,22.364 C27.627,22.423 27.616,22.481 27.604,22.536 C27.592,22.591 27.574,22.671 27.558,22.736 L27.548,22.774 C27.0445534,22.9188 26.5238309,22.9948228 26,23 L29,23 C29.5209944,22.9927135 30.0386392,22.9153527 30.539,22.77 L30.549,22.732 C30.565,22.669 30.58,22.603 30.595,22.532 C30.61,22.461 30.618,22.419 30.629,22.36 C30.645,22.277 30.661,22.189 30.676,22.098 C30.691,22.007 30.702,21.934 30.715,21.845 C30.722,21.792 30.729,21.736 30.737,21.68 C30.75,21.574 30.763,21.463 30.776,21.346 C30.776,21.306 30.785,21.267 30.789,21.225 C30.806,21.062 30.821,20.89 30.835,20.707 C30.835,20.668 30.841,20.627 30.844,20.588 C30.856,20.429 30.867,20.264 30.878,20.088 C30.878,20.04 30.878,19.993 30.886,19.944 C30.91,19.51 30.931,19.027 30.947,18.49 L30.952,18.308 C30.959,18.071 30.965,17.824 30.97,17.565 L30.97,17.437 C30.9753333,17.131 30.98,16.81 30.984,16.474 L30.984,16.305 C30.984,16.021 30.9863333,15.7253333 30.991,15.418 L30.991,15.149 C30.991,14.779 30.991,14.399 30.991,13.996 C30.992224,13.4074989 31.0229291,12.8194285 31.083,12.234 C31.09,12.162 31.095,12.087 31.103,12.015 C31.1601732,11.5109259 31.2439568,11.0102271 31.354,10.515 C31.374,10.427 31.393,10.339 31.413,10.253 C31.51996,9.80915088 31.6511566,9.37149503 31.806,8.942 C31.835,8.863 31.865,8.787 31.895,8.71 C32.0491055,8.30789259 32.2260606,7.91491883 32.425,7.533 C32.452,7.482 32.482,7.433 32.51,7.385 C32.7016984,7.03543474 32.9133827,6.69720736 33.144,6.372 C33.167,6.34 33.188,6.304 33.212,6.272 C33.4448618,5.95537417 33.6963035,5.65284266 33.965,5.366 C34.016,5.311 34.065,5.254 34.117,5.2 C34.3729772,4.93634352 34.6423323,4.68601352 34.924,4.45 C34.988,4.396 35.053,4.343 35.124,4.29 C35.405,4.064 35.695,3.851 35.993,3.655 C36.057,3.613 36.122,3.574 36.186,3.533 C36.498,3.333 36.815,3.151 37.14,2.983 C37.178,2.963 37.216,2.947 37.253,2.928 C37.574,2.766 37.901,2.617 38.23,2.481 L38.361,2.425 C38.705,2.286 39.054,2.163 39.403,2.05 L39.58,2 C39.93,1.89133333 40.2803333,1.793 40.631,1.705 L40.774,1.67 C41.142,1.58133333 41.5086667,1.503 41.874,1.435 L41.9,1.435 C42.446,1.335 42.983,1.256 43.5,1.196 C43.1,1.13 42.673,1.079 42.21,1.05 Z" id="Shape" fill="#FFFFFF" fill-rule="nonzero"></path>
            <path d="M43.108,1.012 L43.248,1.012 L43.108,1.012 Z" id="Shape" fill="#FFFFFF" fill-rule="nonzero"></path>
            <path d="M20.46,24 C20.52,23.86 20.56,23.73 20.63,23.59 C20.7884283,23.229369 21.1461119,22.9974643 21.54,23 L18.924,23 C19.091,23.357 19.239,23.7 19.363,24.02 C19.572,24.01 19.781,24 20,24 L20.46,24 Z" id="Shape" fill="#FFFFFF" fill-rule="nonzero"></path>
            <path d="M45.229,1.047 C44.839,1.019 44.435,1 44,1 C44.434,1 44.839,1.019 45.228,1.047 L45.229,1.047 Z" id="Shape" fill="#FFFFFF" fill-rule="nonzero"></path>
            <path d="M20.29,42.11 L19.727,43 C21.75674,43.6429905 23.8709433,43.9800228 26,44 C26.4345281,43.9988778 26.868613,43.9721648 27.3,43.92 L27.32,43.92 C27.349,43.92 27.38,43.92 27.409,43.92 C24.9566741,43.6884634 22.555114,43.0778687 20.29,42.11 Z" id="Shape" fill="#FFFFFF" fill-rule="nonzero"></path>
            <path d="M48.407,1.636 C48.679,1.724 48.934,1.816 49.16,1.91 C49.9129115,2.22314577 50.3978959,2.96469999 50.383,3.78 C50.3984934,2.9646266 49.9144414,2.2224928 49.162,1.908 C48.4743381,1.62778938 47.7604832,1.41674829 47.031,1.278 C47.4892526,1.36749497 47.9417303,1.48437113 48.386,1.628 L48.407,1.636 Z" id="Shape" fill="#FFFFFF" fill-rule="nonzero"></path>
            <path d="M45.249,1.048 C45.8471227,1.08837514 46.442227,1.16518434 47.031,1.278 C46.4422479,1.16505397 45.8471356,1.08824374 45.249,1.048 Z" id="Shape" fill="#FFFFFF" fill-rule="nonzero"></path>
            <polygon id="Shape" fill="#FFFFFF" fill-rule="nonzero" points="31.96 58.951 32.081 58.946 31.881 58.953"></polygon>
            <path d="M33.019,58.915 L33.372,58.899 C32.947,58.918 32.515,58.932 32.081,58.946 C32.394,58.936 32.71,58.928 33.019,58.915 Z" id="Shape" fill="#FFFFFF" fill-rule="nonzero"></path>
            <path d="M15.128,51.518 L14.915,51.474 L15.315,51.56 C15.251,51.547 15.192,51.532 15.128,51.518 Z" id="Shape" fill="#FFFFFF" fill-rule="nonzero"></path>
            <path d="M33.108,58.912 L33.554,58.892 C33.5,58.892 33.445,58.892 33.392,58.898 L33.108,58.912 Z" id="Shape" fill="#FFFFFF" fill-rule="nonzero"></path>
            <path d="M30.409,52.977 C30.68,52.971 30.956,52.97 31.224,52.961 C30.949,52.97 30.664,52.97 30.386,52.976 L30.409,52.977 Z" id="Shape" fill="#FFFFFF" fill-rule="nonzero"></path>
            <polygon id="Shape" fill="#FFFFFF" fill-rule="nonzero" points="5.884 48.724 5.6 48.6 5.673 48.632 5.673 48.632"></polygon>
            <path d="M5.933,38.767 C6.033,38.744 6.122,38.715 6.218,38.689 C6.64007609,38.5780241 7.05459471,38.4400739 7.459,38.276 L7.459,38.27 C6.90957018,38.49908 6.34059866,38.6781387 5.759,38.805 C5.819,38.794 5.875,38.78 5.933,38.767 Z" id="Shape" fill="#FFFFFF" fill-rule="nonzero"></path>
            <path d="M7.381,34.577 C7.44042866,34.5135669 7.49618611,34.4467915 7.548,34.377 C7.568,34.35 7.586,34.321 7.605,34.293 C7.64818019,34.2284876 7.68790282,34.1617268 7.724,34.093 C7.742,34.059 7.759,34.0256667 7.775,33.993 C7.807,33.926 7.834,33.857 7.86,33.786 C7.873,33.75 7.886,33.713 7.898,33.676 C7.92,33.601 7.937,33.524 7.952,33.445 C7.959,33.411 7.968,33.378 7.973,33.345 C7.99059103,33.2308342 7.99961622,33.1155124 8,33 C8,29 5,29 5,24 C5.00131115,23.5526303 5.03036692,23.1057725 5.087,22.662 C5.096,22.588 5.103,22.512 5.114,22.44 C5.16825295,22.0621032 5.24776435,21.688266 5.352,21.321 C5.37,21.256 5.391,21.193 5.412,21.129 C5.51497349,20.7905215 5.64402663,20.4605333 5.798,20.142 L5.814,20.113 C5.95855123,19.8267806 6.12575038,19.552574 6.314,19.293 C6.344,19.252 6.371,19.21 6.402,19.17 C6.58350854,18.9344928 6.78419324,18.7144085 7.002,18.512 C7.041,18.474 7.082,18.439 7.122,18.404 C7.34032676,18.2095384 7.57446927,18.033597 7.822,17.878 C7.836,17.869 7.85,17.862 7.864,17.854 C8.10973254,17.7040765 8.3668558,17.5736759 8.633,17.464 C8.659,17.454 8.683,17.441 8.709,17.431 C8.98433749,17.3224754 9.26747548,17.2348932 9.556,17.169 L9.565,17.169 C9.456,17.146 9.343,17.13 9.231,17.111 C9.119,17.092 9.026,17.07 8.919,17.058 C8.61408942,17.020443 8.30721301,17.0010754 8,17 C7.782,17 7.564,17.014 7.347,17.035 C7.291,17.041 7.235,17.05 7.179,17.057 C6.994,17.08 6.812,17.112 6.63,17.151 C6.614,17.151 6.597,17.151 6.58,17.16 C6.563,17.169 6.561,17.167 6.551,17.169 C6.26247548,17.2348932 5.97933749,17.3224754 5.704,17.431 C5.678,17.441 5.654,17.454 5.628,17.464 C5.3618558,17.5736759 5.10473254,17.7040765 4.859,17.854 C4.845,17.862 4.831,17.869 4.817,17.878 C4.56946927,18.033597 4.33532676,18.2095384 4.117,18.404 C4.077,18.439 4.036,18.474 3.997,18.512 C3.77919324,18.7144085 3.57850854,18.9344928 3.397,19.17 C3.366,19.21 3.339,19.252 3.309,19.293 C3.12075038,19.552574 2.95355123,19.8267806 2.809,20.113 L2.793,20.142 C2.63902663,20.4605333 2.50997349,20.7905215 2.407,21.129 C2.386,21.193 2.365,21.256 2.347,21.321 C2.24276435,21.688266 2.16325295,22.0621032 2.109,22.44 C2.098,22.512 2.091,22.588 2.082,22.662 C2.02703849,23.1058765 1.99965261,23.5527339 2,24 C2,29 5,29 5,33 C4.99961622,33.1155124 4.99059103,33.2308342 4.973,33.345 C4.973,33.38 4.959,33.413 4.952,33.445 C4.937,33.524 4.92,33.601 4.898,33.676 C4.886,33.713 4.873,33.75 4.86,33.786 C4.834,33.857 4.807,33.926 4.775,33.993 C4.759,34.027 4.742,34.0603333 4.724,34.093 C4.68790282,34.1617268 4.64818019,34.2284876 4.605,34.293 C4.586,34.321 4.568,34.35 4.548,34.377 C4.49618611,34.4467915 4.44042866,34.5135669 4.381,34.577 C4.365,34.595 4.35,34.614 4.333,34.631 C4.2581187,34.7070213 4.17755203,34.7772246 4.092,34.841 C4.532526,35.1073285 5.03039053,35.2643684 5.544,35.299 C5.561,35.299 5.578,35.299 5.594,35.299 C5.68,35.299 5.763,35.299 5.846,35.292 C5.889,35.292 5.931,35.287 5.973,35.282 C6.041,35.274 6.109,35.262 6.173,35.248 C6.237,35.234 6.28,35.224 6.332,35.209 C6.384,35.194 6.441,35.178 6.494,35.159 C6.547,35.14 6.619,35.108 6.68,35.08 C6.719,35.062 6.76,35.045 6.798,35.025 C6.8899931,34.9753642 6.97852799,34.9195705 7.063,34.858 L7.076,34.85 C7.16645436,34.7821448 7.25169333,34.7076025 7.331,34.627 C7.35,34.614 7.365,34.6 7.381,34.577 Z" id="Shape" fill="#FFFFFF" fill-rule="nonzero"></path>
            <path d="M3.143,35.259 L3.155,35.259 L3.143,35.259 Z" id="Shape" fill="#FFFFFF" fill-rule="nonzero"></path>
            <path d="M25.694,52.908 C25.581,52.903 25.465,52.9 25.352,52.894 C25.496,52.902 25.642,52.907 25.787,52.914 C25.755,52.913 25.725,52.91 25.694,52.908 Z" id="Shape" fill="#FFFFFF" fill-rule="nonzero"></path>
            <path d="M18.461,52.144 L18.577,52.163 C18.629,52.172 18.685,52.178 18.738,52.187 L18.461,52.144 Z" id="Shape" fill="#FFFFFF" fill-rule="nonzero"></path>
            <path d="M25.987,52.922 C26.144,52.929 26.302,52.934 26.46,52.94 C26.237,52.931 26.014,52.923 25.794,52.912 L25.987,52.922 Z" id="Shape" fill="#FFFFFF" fill-rule="nonzero"></path>
            <polygon id="Shape" fill="#FFFFFF" fill-rule="nonzero" points="26.709 52.95 26.46 52.94 26.669 52.949"></polygon>
            <path d="M25.177,52.882 L24.947,52.871 L25.352,52.894 C25.293,52.891 25.236,52.885 25.177,52.882 Z" id="Shape" fill="#FFFFFF" fill-rule="nonzero"></path>
            <polygon id="Shape" fill="#FFFFFF" fill-rule="nonzero" points="22.955 52.713 23.095 52.727 23.151 52.732"></polygon>
            <path d="M24.02,52.8 L23.873,52.788 C23.749,52.779 23.618,52.774 23.494,52.764 C23.666,52.78 23.846,52.789 24.02,52.8 Z" id="Shape" fill="#FFFFFF" fill-rule="nonzero"></path>
            <path d="M23.207,52.739 C23.169,52.739 23.133,52.731 23.095,52.727 C22.995,52.718 22.895,52.712 22.795,52.703 C22.93,52.716 23.069,52.727 23.207,52.739 Z" id="Shape" fill="#FFFFFF" fill-rule="nonzero"></path>
            <polygon id="Shape" fill="#FFFFFF" fill-rule="nonzero" points="23.73 52.779 23.873 52.79 23.944 52.795"></polygon>
            <path d="M21.2,52.528 C21.137,52.521 21.072,52.515 21.009,52.507 L20.709,52.472 C20.553,52.452 20.409,52.428 20.249,52.407 L20.144,52.394 C20.53,52.446 20.92,52.494 21.317,52.543 L21.2,52.528 Z" id="Shape" fill="#FFFFFF" fill-rule="nonzero"></path>
            <path d="M31.663,58.96 C31.545,58.96 31.432,58.969 31.313,58.972 C31.479,58.972 31.64,58.961 31.805,58.956 L31.663,58.96 Z" id="Shape" fill="#FFFFFF" fill-rule="nonzero"></path>
            <polygon id="Shape" fill="#FFFFFF" fill-rule="nonzero" points="30.949 58.978 31.313 58.972 31.125 58.972"></polygon>
            <path d="M19.436,52.3 C19.67,52.334 19.905,52.367 20.143,52.4 C19.905,52.364 19.6693333,52.3306667 19.436,52.3 Z" id="Shape" fill="#FFFFFF" fill-rule="nonzero"></path>
            <path d="M3.7,35.075 L3.682,35.084 L3.582,35.127 C3.621,35.11 3.661,35.094 3.7,35.075 Z" id="Shape" fill="#FFFFFF" fill-rule="nonzero"></path>
            <path d="M21.973,52.614 C21.753,52.591 21.532,52.568 21.316,52.543 C21.575,52.574 21.839,52.601 22.103,52.629 L21.973,52.614 Z" id="Shape" fill="#FFFFFF" fill-rule="nonzero"></path>
            <path d="M21.149,52.522 C20.883,52.49 20.621,52.456 20.359,52.422 C20.478,52.438 20.589,52.458 20.708,52.473 L21.008,52.508 C21.053,52.513 21.1,52.516 21.149,52.522 Z" id="Shape" fill="#FFFFFF" fill-rule="nonzero"></path>
            <path d="M19.436,52.3 L19.321,52.282 C19.071,52.245 18.821,52.208 18.577,52.168 L18.447,52.15 C18.772,52.2 19.1,52.246 19.436,52.3 Z" id="Shape" fill="#FFFFFF" fill-rule="nonzero"></path>
            <path d="M13.6,51.17 L13.517,51.149 L13.227,51.077 C13.027,51.027 12.827,50.977 12.632,50.928 C12.944,51.009 13.264,51.09 13.6,51.17 Z" id="Shape" fill="#FFFFFF" fill-rule="nonzero"></path>
            <path d="M30.916,58.979 L31.075,58.974 C30.815,58.98 30.548,58.981 30.285,58.984 L30.326,58.984 C30.522,58.983 30.722,58.983 30.916,58.979 Z" id="Shape" fill="#FFFFFF" fill-rule="nonzero"></path>
            <path d="M29.669,58.931 C29.449,58.94 29.222,58.943 29,58.95 L29.033,58.95 C29.245,58.944 29.459,58.939 29.669,58.931 Z" id="Shape" fill="#FFFFFF" fill-rule="nonzero"></path>
            <path d="M30.321,58.985 L30.278,58.985 C29.853,58.99 29.434,59 29,59 C29.447,59 29.882,58.991 30.321,58.985 Z" id="Shape" fill="#FFFFFF" fill-rule="nonzero"></path>
            <path d="M20.1,52.727 C20.357,52.751 20.618,52.77 20.878,52.79 C20.613,52.77 20.352,52.751 20.1,52.727 Z" id="Shape" fill="#FFFFFF" fill-rule="nonzero"></path>
            <path d="M27.56,52.98 L27.5,52.98 C27.99,52.99 28.49,53 29,53 C28.51,53 28.03,52.99 27.56,52.98 Z" id="Shape" fill="#FFFFFF" fill-rule="nonzero"></path>
            <path d="M27.269,52.971 L27.169,52.971 C27.255,52.971 27.338,52.98 27.424,52.982 C26.954,52.992 26.484,53.002 26.004,53.002 C26.514,53.002 27.014,52.992 27.504,52.982 C27.422,52.978 27.347,52.973 27.269,52.971 Z" id="Shape" fill="#FFFFFF" fill-rule="nonzero"></path>
            <path d="M23.419,52.943 C24.266,52.977 25.119,53 26,53 C25.123,53 24.265,52.977 23.419,52.943 Z" id="Shape" fill="#FFFFFF" fill-rule="nonzero"></path>
            <path d="M22.643,52.905 C22.902,52.918 23.158,52.933 23.419,52.943 C23.158,52.933 22.9,52.918 22.643,52.905 Z" id="Shape" fill="#FFFFFF" fill-rule="nonzero"></path>
            <path d="M20.873,52.79 C21.455,52.836 22.045,52.8743333 22.643,52.905 C22.045,52.8743333 21.455,52.836 20.873,52.79 Z" id="Shape" fill="#FFFFFF" fill-rule="nonzero"></path>
            <path d="M8.944,50.747 C10.119,51.065 11.4,51.372 12.78,51.654 C11.4,51.372 10.117,51.065 8.944,50.747 Z" id="Shape" fill="#FFFFFF" fill-rule="nonzero"></path>
            <path d="M12.78,51.654 C12.98,51.695 13.18,51.734 13.386,51.773 C13.183,51.734 12.979,51.7 12.78,51.654 Z" id="Shape" fill="#FFFFFF" fill-rule="nonzero"></path>
            <path d="M8.816,50.712 L8.944,50.747 L8.816,50.712 Z" id="Shape" fill="#FFFFFF" fill-rule="nonzero"></path>
            <path d="M13.386,51.773 C13.8726667,51.8676667 14.3726667,51.9586667 14.886,52.046 C14.374,51.9593333 13.874,51.8683333 13.386,51.773 Z" id="Shape" fill="#FFFFFF" fill-rule="nonzero"></path>
            <path d="M15.577,52.163 C16.271,52.274 16.977,52.379 17.708,52.472 C16.978,52.379 16.27,52.274 15.577,52.163 Z" id="Shape" fill="#FFFFFF" fill-rule="nonzero"></path>
            <path d="M18.007,52.507 C18.6876667,52.5903333 19.3836667,52.6636667 20.095,52.727 C19.385,52.663 18.687,52.59 18.007,52.507 Z" id="Shape" fill="#FFFFFF" fill-rule="nonzero"></path>
            <path d="M14.881,52.046 C15.112,52.085 15.341,52.126 15.581,52.163 C15.341,52.126 15.112,52.085 14.881,52.046 Z" id="Shape" fill="#FFFFFF" fill-rule="nonzero"></path>
            <path d="M17.708,52.472 L18.008,52.507 L17.708,52.472 Z" id="Shape" fill="#FFFFFF" fill-rule="nonzero"></path>
            <path d="M2.673,48.105 C2.732,48.091 2.792,48.084 2.852,48.074 C2.792,48.085 2.732,48.09 2.673,48.105 Z" id="Shape" fill="#FFFFFF" fill-rule="nonzero"></path>
            <path d="M30.336,52.977 C29.892,52.986 29.452,53 29,53 C29.459,53 29.906,52.987 30.357,52.977 L30.336,52.977 Z" id="Shape" fill="#FFFFFF" fill-rule="nonzero"></path>
            <path d="M29.669,58.931 C29.932,58.922 30.187,58.907 30.447,58.895 C30.187,58.907 29.932,58.922 29.669,58.931 Z" id="Shape" fill="#FFFFFF" fill-rule="nonzero"></path>
            <path d="M25.331,58.931 C26.043,58.958 26.764,58.979 27.5,58.99 C26.764,58.979 26.043,58.958 25.331,58.931 Z" id="Shape" fill="#FFFFFF" fill-rule="nonzero"></path>
            <path d="M28.967,58.95 C28.48,58.965 27.998,58.982 27.5,58.99 C28.008,58.982 28.5,58.966 29,58.951 L28.967,58.95 Z" id="Shape" fill="#FFFFFF" fill-rule="nonzero"></path>
            <path d="M0.022,34.4 C0.022,34.36 0.016,34.323 0.013,34.288 C0.016,34.327 0.018,34.359 0.022,34.4 Z" id="Shape" fill="#FFFFFF" fill-rule="nonzero"></path>
            <path d="M24.553,58.9 C24.813,58.912 25.068,58.927 25.331,58.936 C25.068,58.922 24.813,58.907 24.553,58.9 Z" id="Shape" fill="#FFFFFF" fill-rule="nonzero"></path>
            <path d="M0.013,34.29 C0.013,34.228 0.006,34.17 0.004,34.128 C0.006,34.172 0.009,34.224 0.013,34.29 Z" id="Shape" fill="#FFFFFF" fill-rule="nonzero"></path>
            <path d="M0,34 L0,34.072 L0,34 Z" id="Shape" fill="#FFFFFF" fill-rule="nonzero"></path>
            <path d="M0,34.128 L0,34.072 L0,34.128 Z" id="Shape" fill="#FFFFFF" fill-rule="nonzero"></path>
            <path d="M0.143,35.259 C0.143,35.238 0.133,35.216 0.13,35.195 C0.13,35.218 0.135,35.237 0.14,35.26 C0.15,35.312 0.166,35.37 0.178,35.424 C0.194,35.499 0.21,35.573 0.23,35.65 C0.25,35.727 0.268,35.793 0.289,35.867 C0.315,35.958 0.342,36.049 0.373,36.142 C0.396,36.212 0.421,36.281 0.448,36.352 C0.483,36.452 0.522,36.544 0.564,36.641 C0.594,36.711 0.625,36.78 0.659,36.85 C0.705,36.945 0.759,37.038 0.809,37.132 C0.848,37.201 0.887,37.27 0.929,37.338 C0.986,37.427 1.05,37.513 1.115,37.598 C1.164,37.665 1.215,37.731 1.265,37.798 C1.334,37.878 1.412,37.952 1.488,38.027 C1.549,38.087 1.606,38.151 1.672,38.207 C1.75803808,38.2751682 1.84748691,38.3389172 1.94,38.398 C2.09804826,38.5056676 2.26537669,38.5990368 2.44,38.677 C2.524,38.715 2.602,38.76 2.692,38.791 C2.709,38.797 2.723,38.807 2.74,38.813 C2.89474527,38.860503 3.05240981,38.8979149 3.212,38.925 C3.05819741,38.8963006 2.90651656,38.857211 2.758,38.808 C3.33959866,38.6811387 3.90857018,38.50208 4.458,38.273 C4.409,38.51 4.358,38.747 4.32,38.984 C4.214,38.986 4.11,39 4,39 C4.11,39 4.22,39 4.32,38.99 C4.42,38.98 4.504,38.972 4.597,38.965 C4.756,38.953 4.916,38.943 5.071,38.923 C5.226,38.903 5.36,38.876 5.503,38.85 C5.581,38.835 5.662,38.826 5.739,38.81 C5.722,38.804 5.709,38.794 5.692,38.788 C5.602,38.757 5.524,38.712 5.44,38.674 C5.16749436,38.546054 4.90993632,38.3884338 4.672,38.204 C4.606,38.148 4.549,38.084 4.488,38.024 C4.412,37.949 4.334,37.875 4.265,37.795 C4.211,37.731 4.165,37.665 4.115,37.595 C4.05,37.51 3.986,37.424 3.929,37.335 C3.887,37.267 3.848,37.198 3.809,37.129 C3.756,37.035 3.709,36.942 3.659,36.847 C3.625,36.777 3.594,36.708 3.564,36.638 C3.522,36.538 3.483,36.446 3.448,36.349 C3.421,36.278 3.396,36.209 3.373,36.139 C3.342,36.046 3.315,35.955 3.289,35.864 C3.268,35.79 3.248,35.719 3.23,35.647 C3.212,35.575 3.194,35.496 3.178,35.421 C3.166,35.367 3.15,35.309 3.14,35.257 C3.085,35.267 3.029,35.278 2.973,35.285 C2.917,35.292 2.889,35.292 2.846,35.295 C2.763,35.3 2.68,35.305 2.594,35.302 C2.578,35.302 2.561,35.302 2.544,35.302 C2.02949746,35.2657783 1.53104739,35.1073987 1.09,34.84 C0.936130825,34.7544248 0.788436942,34.6581899 0.648,34.552 C0.788927137,34.6566117 0.935480114,34.7534235 1.087,34.842 C0.811917905,35.0573579 0.487454093,35.2006857 0.143,35.259 Z" id="Shape" fill="#FFFFFF" fill-rule="nonzero"></path>
            <path d="M0.509,34.452 C0.555,34.489 0.602,34.518 0.648,34.552 C0.6,34.518 0.555,34.489 0.509,34.452 Z" id="Shape" fill="#FFFFFF" fill-rule="nonzero"></path>
            <path d="M0,34 C0.160801833,34.1603631 0.330752835,34.3112822 0.509,34.452 C0.330670164,34.311381 0.160713562,34.1604568 0,34 Z" id="Shape" fill="#FFFFFF" fill-rule="nonzero"></path>
            <path d="M3.306,38.945 C3.273,38.939 3.245,38.928 3.212,38.922 C3.245,38.929 3.273,38.939 3.306,38.945 Z" id="Shape" fill="#FFFFFF" fill-rule="nonzero"></path>
            <path d="M0.062,34.779 C0.056,34.733 0.053,34.696 0.048,34.653 C0.053,34.7 0.056,34.732 0.062,34.779 Z" id="Shape" fill="#FFFFFF" fill-rule="nonzero"></path>
            <path d="M4,39 C3.76756862,39.0002415 3.53549192,38.9818492 3.306,38.945 C3.53547232,38.9820127 3.76756222,39.000406 4,39 Z" id="Shape" fill="#FFFFFF" fill-rule="nonzero"></path>
            <path d="M0.13,35.2 C0.102,35.053 0.079,34.911 0.062,34.784 C0.079,34.907 0.1,35.047 0.13,35.2 Z" id="Shape" fill="#FFFFFF" fill-rule="nonzero"></path>
            <path d="M0.048,34.653 C0.038,34.563 0.028,34.476 0.022,34.402 C0.028,34.477 0.037,34.562 0.048,34.653 Z" id="Shape" fill="#FFFFFF" fill-rule="nonzero"></path>
            <path d="M17.521,58.309 L18.312,58.403 L17.521,58.309 Z" id="Shape" fill="#FFFFFF" fill-rule="nonzero"></path>
            <path d="M18.312,58.4 C18.6453333,58.438 18.9846667,58.4743333 19.33,58.509 C18.9873333,58.4756667 18.648,58.4393333 18.312,58.4 Z" id="Shape" fill="#FFFFFF" fill-rule="nonzero"></path>
            <path d="M16.458,58.173 C16.807,58.22 17.158,58.265 17.521,58.309 C17.163,58.265 16.807,58.22 16.458,58.173 Z" id="Shape" fill="#FFFFFF" fill-rule="nonzero"></path>
            <path d="M19.33,58.512 C19.638,58.544 19.95,58.573 20.264,58.602 C19.95,58.573 19.638,58.544 19.33,58.512 Z" id="Shape" fill="#FFFFFF" fill-rule="nonzero"></path>
            <path d="M20.264,58.6 C20.587,58.63 20.911,58.659 21.241,58.686 C20.911,58.661 20.587,58.632 20.264,58.6 Z" id="Shape" fill="#FFFFFF" fill-rule="nonzero"></path>
            <path d="M15.829,58.084 L16.458,58.173 L15.829,58.084 Z" id="Shape" fill="#FFFFFF" fill-rule="nonzero"></path>
            <path d="M23.244,58.829 C23.674,58.855 24.113,58.875 24.553,58.895 C24.113,58.875 23.674,58.855 23.244,58.829 Z" id="Shape" fill="#FFFFFF" fill-rule="nonzero"></path>
            <path d="M21.241,58.688 C21.597,58.717 21.961,58.742 22.325,58.767 C21.961,58.742 21.6,58.717 21.241,58.688 Z" id="Shape" fill="#FFFFFF" fill-rule="nonzero"></path>
            <path d="M22.325,58.767 C22.625,58.788 22.933,58.811 23.244,58.829 C22.933,58.811 22.63,58.788 22.325,58.767 Z" id="Shape" fill="#FFFFFF" fill-rule="nonzero"></path>
            <path d="M14.7,57.918 C15.068,57.975 15.446,58.03 15.826,58.084 C15.45,58.03 15.071,57.975 14.7,57.918 Z" id="Shape" fill="#FFFFFF" fill-rule="nonzero"></path>
            <path d="M14.305,57.853 L14.705,57.918 L14.305,57.853 Z" id="Shape" fill="#FFFFFF" fill-rule="nonzero"></path>
            <path d="M2.564,53.812 C6.56115326,55.2857946 10.7027951,56.333272 14.92,56.937 C19.5794358,57.6491921 24.2864516,58.0045584 29,58 L29,60.0000484 C24.1833063,60.0048767 19.3732889,59.6414844 14.612,58.913 C10.2423499,58.287192 5.95158551,57.1987457 1.812,55.666 L2.564,53.812 Z" id="Shape" fill="#FFFFFF" fill-rule="nonzero"></path>
            <path d="M6.94,56.287 C7.08143936,55.759763 6.77792083,55.2156452 6.255,55.059 C4.997,54.699 3.755,54.286 2.564,53.812 L1.814,55.666 C3.1,56.177 4.393,56.605 5.698,56.979 C5.95449239,57.05343 6.23010046,57.0221668 6.46340489,56.8921776 C6.69670932,56.7621883 6.86832236,56.5442751 6.94,56.287 Z" id="Shape" fill="#000000" fill-rule="nonzero"></path>
            <path d="M29,60 L29,58 C24.2864516,58.0045584 19.5794358,57.6491921 14.92,56.937 L13.944,56.783 C13.5881738,56.7158058 13.2238224,56.8462246 12.9914625,57.1239586 C12.7591026,57.4016926 12.6950425,57.7833434 12.823988,58.1217225 C12.9529334,58.4601016 13.2547353,58.7023341 13.613,58.755 L14.613,58.913 C19.373959,59.6414336 24.1836401,60.0048257 29,60 Z" id="Shape" fill="#000000" fill-rule="nonzero"></path>
            <path d="M10.07,56.027 C9.81300654,55.9735604 9.54530879,56.0196659 9.321,56.156 L9.171,56.276 C9.12152302,56.3219134 9.07816627,56.3740087 9.042,56.431 C9.00102598,56.4795264 8.96733899,56.5337624 8.942,56.592 C8.9157579,56.6536746 8.89403398,56.7171753 8.877,56.782 C8.77242952,57.1772025 8.93383374,57.5948359 9.277,57.817 C9.61197207,58.0470849 10.0503385,58.0607594 10.399,57.852 C10.5075267,57.776466 10.6008256,57.6811314 10.674,57.571 C10.7489023,57.4633783 10.801908,57.3420766 10.83,57.214 C10.9459458,56.6767039 10.6065053,56.1465514 10.07,56.027 Z" id="Shape" fill="#000000" fill-rule="nonzero"></path>
            <path d="M29,59 C42.19,59 51.775,56.371 55.811,54.739 C56.8980074,54.29822 57.6919449,53.3422324 57.9256184,52.1927678 C58.1592919,51.0433032 57.8016296,49.8532079 56.973,49.023 C55.9361408,47.9838899 54.3601184,47.7041699 53.029,48.323 C45.4134298,51.4756579 37.2420743,53.066129 29,53 C20.7581303,53.0670797 12.5867825,51.4776303 4.971,48.326 C3.63988163,47.7071699 2.06385921,47.9868899 1.027,49.026 C0.198370431,49.8562079 -0.159291931,51.0463032 0.0743815934,52.1957678 C0.308055118,53.3452324 1.10199255,54.30122 2.189,54.742" id="Shape" stroke="#000000" stroke-width="2" stroke-linecap="round" stroke-linejoin="round"></path>
            <path d="M43,7 C37,7 32,9 32,17 C32,23 28,24 26,24 L20,24 C9.336,24 7.131,36.218 6.1,48.809 C7.96832121,49.5561383 9.87974925,50.1906095 11.824,50.709 L17.5,41.784 C17.7757609,41.3510787 18.3345085,41.1972395 18.793,41.428 C21.9598272,43.0387955 25.4480016,43.9177594 29,44 C32.3112657,43.8722351 35.4579222,42.5228029 37.833,40.212 C38.0790672,39.9827321 38.4248626,39.8943847 38.750747,39.9775247 C39.0766313,40.0606647 39.3378402,40.3038715 39.444,40.623 C40.8642405,44.2781981 42.6499662,47.7806328 44.774,51.077 C47.0358873,50.5280992 49.2601421,49.8343348 51.433,49 C45.937,38.787 45,21 45,21 C45,21 47,24 52,24 C57,24 58,22 58,19 C58,13 50,7 43,7 Z" id="Shape" stroke="#000000" stroke-width="2" stroke-linecap="round" stroke-linejoin="round"></path>
            <path d="M26,33 L26,37" id="Shape" stroke="#000000" stroke-width="2" stroke-linecap="round" stroke-linejoin="round"></path>
            <path d="M24,37 L28,37" id="Shape" stroke="#000000" stroke-width="2" stroke-linecap="round" stroke-linejoin="round"></path>
            <path d="M26,33 C29.825,33 33.631,31.157 30.46,24 C30.1744461,23.6158979 29.8669334,23.2486189 29.539,22.9 C28.4999262,23.6206576 27.2645158,24.0046506 26,24 L21.54,24 C18.369,31.157 22.175,33 26,33 Z" id="Shape" stroke="#000000" stroke-width="2" stroke-linecap="round" stroke-linejoin="round"></path>
            <path d="M44,1 C39,1 28,2 28,14 C28,21.134 27.745,22.924 27.055,23.908 C29.147,23.565 32,22.07 32,17 C32,9 37,7 43,7 C44.8695548,7.02790364 46.7178818,7.40082362 48.452,8.1 L50.175,4.652 C50.4234188,4.15698887 50.4554461,3.58112744 50.2634509,3.06162214 C50.0714556,2.54211683 49.6726303,2.12548697 49.162,1.911 C47.5178717,1.27123071 45.7638008,0.9616688 44,1 Z" id="Shape" stroke="#000000" stroke-width="2" stroke-linecap="round" stroke-linejoin="round"></path>
            <path d="M44.268,14 C44.7206279,13.2161175 45.6433125,12.8339583 46.5176447,13.0682381 C47.3919769,13.3025179 47.9999602,14.0948239 48,15" id="Shape" stroke="#000000" stroke-width="2" stroke-linecap="round" stroke-linejoin="round"></path>
            <path d="M8,17 C5,17 2,19 2,24 C2,29 5,29 5,33 C5,35 2.5,36.5 0,34 C0,34 0,39 4,39 C5.19102551,38.9877182 6.36801515,38.7413795 7.464,38.275 C8.837,31.533 11.364,26.126 16.544,24.504 C15.63,21.946 13.192,17 8,17 Z" id="Shape" stroke="#000000" stroke-width="2" stroke-linecap="round" stroke-linejoin="round"></path>
        </g>
    </g>
</svg>